<mxfile host="Electron" agent="Mozilla/5.0 (Windows NT 10.0; Win64; x64) AppleWebKit/537.36 (KHTML, like Gecko) draw.io/26.0.4 Chrome/128.0.6613.186 Electron/32.2.5 Safari/537.36" version="26.0.4">
  <diagram name="第 1 页" id="A2wYnKDMZFF023bxGnZ8">
    <mxGraphModel dx="2049" dy="1206" grid="1" gridSize="10" guides="1" tooltips="1" connect="1" arrows="1" fold="1" page="1" pageScale="1" pageWidth="827" pageHeight="1169" background="none" math="0" shadow="0">
      <root>
        <mxCell id="0" />
        <mxCell id="1" parent="0" />
        <mxCell id="-QrxRBGIXTvyxB3OS5xk-55" value="" style="rounded=0;whiteSpace=wrap;html=1;" parent="1" vertex="1">
          <mxGeometry x="10" y="168" width="2100" height="1652" as="geometry" />
        </mxCell>
        <mxCell id="-QrxRBGIXTvyxB3OS5xk-1" value="SpringApplication" style="shape=umlLifeline;whiteSpace=wrap;html=1;container=1;dropTarget=0;collapsible=0;recursiveResize=0;outlineConnect=0;portConstraint=eastwest;newEdgeStyle={&quot;curved&quot;:0,&quot;rounded&quot;:0};fontSize=20;fontStyle=1;points=[[0,0,0,0,5],[0,1,0,0,-5],[1,0,0,0,5],[1,1,0,0,-5]];perimeter=rectanglePerimeter;targetShapes=umlLifeline;participant=label;fontColor=#FF0000;" parent="1" vertex="1">
          <mxGeometry x="213" y="210" width="230" height="1570" as="geometry" />
        </mxCell>
        <mxCell id="-QrxRBGIXTvyxB3OS5xk-2" value="" style="html=1;points=[[0,0,0,0,5],[0,1,0,0,-5],[1,0,0,0,5],[1,1,0,0,-5]];perimeter=orthogonalPerimeter;outlineConnect=0;targetShapes=umlLifeline;portConstraint=eastwest;newEdgeStyle={&quot;curved&quot;:0,&quot;rounded&quot;:0};" parent="-QrxRBGIXTvyxB3OS5xk-1" vertex="1">
          <mxGeometry x="111" y="130" width="10" height="1370" as="geometry" />
        </mxCell>
        <mxCell id="-QrxRBGIXTvyxB3OS5xk-16" value="" style="html=1;points=[[0,0,0,0,5],[0,1,0,0,-5],[1,0,0,0,5],[1,1,0,0,-5]];perimeter=orthogonalPerimeter;outlineConnect=0;targetShapes=umlLifeline;portConstraint=eastwest;newEdgeStyle={&quot;curved&quot;:0,&quot;rounded&quot;:0};" parent="-QrxRBGIXTvyxB3OS5xk-1" vertex="1">
          <mxGeometry x="116" y="187" width="10" height="273" as="geometry" />
        </mxCell>
        <mxCell id="-QrxRBGIXTvyxB3OS5xk-17" value="执行构造器方法" style="html=1;align=left;spacingLeft=2;endArrow=block;rounded=0;edgeStyle=orthogonalEdgeStyle;curved=0;rounded=0;fontSize=20;" parent="-QrxRBGIXTvyxB3OS5xk-1" target="-QrxRBGIXTvyxB3OS5xk-16" edge="1">
          <mxGeometry relative="1" as="geometry">
            <mxPoint x="121" y="167" as="sourcePoint" />
            <Array as="points">
              <mxPoint x="151" y="197" />
            </Array>
          </mxGeometry>
        </mxCell>
        <mxCell id="A_lMgig04zZX347-qLPO-1" value="" style="html=1;points=[[0,0,0,0,5],[0,1,0,0,-5],[1,0,0,0,5],[1,1,0,0,-5]];perimeter=orthogonalPerimeter;outlineConnect=0;targetShapes=umlLifeline;portConstraint=eastwest;newEdgeStyle={&quot;curved&quot;:0,&quot;rounded&quot;:0};" parent="-QrxRBGIXTvyxB3OS5xk-1" vertex="1">
          <mxGeometry x="122" y="240" width="10" height="40" as="geometry" />
        </mxCell>
        <mxCell id="A_lMgig04zZX347-qLPO-2" value="加载资源：META-INF/spring.factories&lt;div&gt;加载类型：org.springframework.boot.BootstrapRegistryInitializer&lt;/div&gt;" style="html=1;align=left;spacingLeft=2;endArrow=block;rounded=0;edgeStyle=orthogonalEdgeStyle;curved=0;rounded=0;fontSize=20;" parent="-QrxRBGIXTvyxB3OS5xk-1" target="A_lMgig04zZX347-qLPO-1" edge="1">
          <mxGeometry relative="1" as="geometry">
            <mxPoint x="127" y="220" as="sourcePoint" />
            <Array as="points">
              <mxPoint x="157" y="250" />
            </Array>
          </mxGeometry>
        </mxCell>
        <mxCell id="A_lMgig04zZX347-qLPO-3" value="" style="html=1;points=[[0,0,0,0,5],[0,1,0,0,-5],[1,0,0,0,5],[1,1,0,0,-5]];perimeter=orthogonalPerimeter;outlineConnect=0;targetShapes=umlLifeline;portConstraint=eastwest;newEdgeStyle={&quot;curved&quot;:0,&quot;rounded&quot;:0};" parent="-QrxRBGIXTvyxB3OS5xk-1" vertex="1">
          <mxGeometry x="122" y="320" width="10" height="40" as="geometry" />
        </mxCell>
        <mxCell id="A_lMgig04zZX347-qLPO-4" value="&lt;div&gt;加载资源：META-INF/spring.factories&lt;/div&gt;&lt;div&gt;加载类型：org.springframework.context.ApplicationContextInitializer&lt;/div&gt;" style="html=1;align=left;spacingLeft=2;endArrow=block;rounded=0;edgeStyle=orthogonalEdgeStyle;curved=0;rounded=0;fontSize=20;" parent="-QrxRBGIXTvyxB3OS5xk-1" target="A_lMgig04zZX347-qLPO-3" edge="1">
          <mxGeometry relative="1" as="geometry">
            <mxPoint x="127" y="300" as="sourcePoint" />
            <Array as="points">
              <mxPoint x="157" y="330" />
            </Array>
          </mxGeometry>
        </mxCell>
        <mxCell id="m-SrFzIWjWcpo6os5ry7-2" value="" style="html=1;points=[[0,0,0,0,5],[0,1,0,0,-5],[1,0,0,0,5],[1,1,0,0,-5]];perimeter=orthogonalPerimeter;outlineConnect=0;targetShapes=umlLifeline;portConstraint=eastwest;newEdgeStyle={&quot;curved&quot;:0,&quot;rounded&quot;:0};" parent="-QrxRBGIXTvyxB3OS5xk-1" vertex="1">
          <mxGeometry x="121" y="403" width="10" height="40" as="geometry" />
        </mxCell>
        <mxCell id="m-SrFzIWjWcpo6os5ry7-3" value="加载资源：META-INF/spring.factories&lt;div&gt;加载类型：org.springframework.context.ApplicationListener&lt;/div&gt;" style="html=1;align=left;spacingLeft=2;endArrow=block;rounded=0;edgeStyle=orthogonalEdgeStyle;curved=0;rounded=0;fontSize=20;" parent="-QrxRBGIXTvyxB3OS5xk-1" target="m-SrFzIWjWcpo6os5ry7-2" edge="1">
          <mxGeometry relative="1" as="geometry">
            <mxPoint x="126" y="383" as="sourcePoint" />
            <Array as="points">
              <mxPoint x="156" y="413" />
            </Array>
          </mxGeometry>
        </mxCell>
        <mxCell id="m-SrFzIWjWcpo6os5ry7-4" value="" style="html=1;points=[[0,0,0,0,5],[0,1,0,0,-5],[1,0,0,0,5],[1,1,0,0,-5]];perimeter=orthogonalPerimeter;outlineConnect=0;targetShapes=umlLifeline;portConstraint=eastwest;newEdgeStyle={&quot;curved&quot;:0,&quot;rounded&quot;:0};" parent="-QrxRBGIXTvyxB3OS5xk-1" vertex="1">
          <mxGeometry x="117" y="510" width="10" height="540" as="geometry" />
        </mxCell>
        <mxCell id="m-SrFzIWjWcpo6os5ry7-5" value="run()方法执行" style="html=1;align=left;spacingLeft=2;endArrow=block;rounded=0;edgeStyle=orthogonalEdgeStyle;curved=0;rounded=0;fontSize=20;" parent="-QrxRBGIXTvyxB3OS5xk-1" target="m-SrFzIWjWcpo6os5ry7-4" edge="1">
          <mxGeometry relative="1" as="geometry">
            <mxPoint x="122" y="490" as="sourcePoint" />
            <Array as="points">
              <mxPoint x="152" y="520" />
            </Array>
          </mxGeometry>
        </mxCell>
        <mxCell id="m-SrFzIWjWcpo6os5ry7-8" value="" style="html=1;points=[[0,0,0,0,5],[0,1,0,0,-5],[1,0,0,0,5],[1,1,0,0,-5]];perimeter=orthogonalPerimeter;outlineConnect=0;targetShapes=umlLifeline;portConstraint=eastwest;newEdgeStyle={&quot;curved&quot;:0,&quot;rounded&quot;:0};" parent="-QrxRBGIXTvyxB3OS5xk-1" vertex="1">
          <mxGeometry x="122" y="559" width="10" height="40" as="geometry" />
        </mxCell>
        <mxCell id="m-SrFzIWjWcpo6os5ry7-9" value="configureHeadlessProperty()：配置Headless模式：确保应用在&lt;div&gt;无图形界面环境（如服务器）中也能正常工作&lt;/div&gt;" style="html=1;align=left;spacingLeft=2;endArrow=block;rounded=0;edgeStyle=orthogonalEdgeStyle;curved=0;rounded=0;fontSize=20;" parent="-QrxRBGIXTvyxB3OS5xk-1" target="m-SrFzIWjWcpo6os5ry7-8" edge="1">
          <mxGeometry relative="1" as="geometry">
            <mxPoint x="127" y="539" as="sourcePoint" />
            <Array as="points">
              <mxPoint x="157" y="569" />
            </Array>
          </mxGeometry>
        </mxCell>
        <mxCell id="MXJS1vc6aWy4tjezfeGe-1" value="" style="html=1;points=[[0,0,0,0,5],[0,1,0,0,-5],[1,0,0,0,5],[1,1,0,0,-5]];perimeter=orthogonalPerimeter;outlineConnect=0;targetShapes=umlLifeline;portConstraint=eastwest;newEdgeStyle={&quot;curved&quot;:0,&quot;rounded&quot;:0};" parent="-QrxRBGIXTvyxB3OS5xk-1" vertex="1">
          <mxGeometry x="122" y="640" width="10" height="40" as="geometry" />
        </mxCell>
        <mxCell id="MXJS1vc6aWy4tjezfeGe-2" value="加载资源：META-INF/spring.factories&lt;div&gt;加载类型：org.springframework.boot.SpringApplicationRunListener&lt;/div&gt;" style="html=1;align=left;spacingLeft=2;endArrow=block;rounded=0;edgeStyle=orthogonalEdgeStyle;curved=0;rounded=0;fontSize=20;" parent="-QrxRBGIXTvyxB3OS5xk-1" target="MXJS1vc6aWy4tjezfeGe-1" edge="1">
          <mxGeometry relative="1" as="geometry">
            <mxPoint x="127" y="620" as="sourcePoint" />
            <Array as="points">
              <mxPoint x="157" y="650" />
            </Array>
          </mxGeometry>
        </mxCell>
        <mxCell id="MXJS1vc6aWy4tjezfeGe-4" value="发布应用启动事件：ApplicationStartingEvent" style="html=1;verticalAlign=bottom;startArrow=oval;endArrow=block;startSize=8;curved=0;rounded=0;entryX=0;entryY=0;entryDx=0;entryDy=5;fontSize=20;strokeColor=#00CC00;" parent="-QrxRBGIXTvyxB3OS5xk-1" target="MXJS1vc6aWy4tjezfeGe-3" edge="1">
          <mxGeometry relative="1" as="geometry">
            <mxPoint x="131" y="705" as="sourcePoint" />
          </mxGeometry>
        </mxCell>
        <mxCell id="sT0C0HFc28g8CPJ5HvF9-3" value="" style="html=1;points=[[0,0,0,0,5],[0,1,0,0,-5],[1,0,0,0,5],[1,1,0,0,-5]];perimeter=orthogonalPerimeter;outlineConnect=0;targetShapes=umlLifeline;portConstraint=eastwest;newEdgeStyle={&quot;curved&quot;:0,&quot;rounded&quot;:0};" parent="-QrxRBGIXTvyxB3OS5xk-1" vertex="1">
          <mxGeometry x="122" y="820" width="10" height="170" as="geometry" />
        </mxCell>
        <mxCell id="sT0C0HFc28g8CPJ5HvF9-4" value="prepareEnvironment()：准备环境" style="html=1;align=left;spacingLeft=2;endArrow=block;rounded=0;edgeStyle=orthogonalEdgeStyle;curved=0;rounded=0;fontSize=20;" parent="-QrxRBGIXTvyxB3OS5xk-1" target="sT0C0HFc28g8CPJ5HvF9-3" edge="1">
          <mxGeometry relative="1" as="geometry">
            <mxPoint x="127" y="800" as="sourcePoint" />
            <Array as="points">
              <mxPoint x="157" y="830" />
            </Array>
          </mxGeometry>
        </mxCell>
        <mxCell id="sT0C0HFc28g8CPJ5HvF9-7" value="" style="html=1;points=[[0,0,0,0,5],[0,1,0,0,-5],[1,0,0,0,5],[1,1,0,0,-5]];perimeter=orthogonalPerimeter;outlineConnect=0;targetShapes=umlLifeline;portConstraint=eastwest;newEdgeStyle={&quot;curved&quot;:0,&quot;rounded&quot;:0};" parent="-QrxRBGIXTvyxB3OS5xk-1" vertex="1">
          <mxGeometry x="127" y="870" width="10" height="40" as="geometry" />
        </mxCell>
        <mxCell id="sT0C0HFc28g8CPJ5HvF9-8" value="加载资源：META-INF/spring.factories&lt;div&gt;加载类型：org.springframework.boot.ApplicationContextFactory&lt;/div&gt;&lt;div&gt;---未用到&lt;/div&gt;" style="html=1;align=left;spacingLeft=2;endArrow=block;rounded=0;edgeStyle=orthogonalEdgeStyle;curved=0;rounded=0;fontSize=20;" parent="-QrxRBGIXTvyxB3OS5xk-1" target="sT0C0HFc28g8CPJ5HvF9-7" edge="1">
          <mxGeometry relative="1" as="geometry">
            <mxPoint x="132" y="850" as="sourcePoint" />
            <Array as="points">
              <mxPoint x="162" y="880" />
            </Array>
          </mxGeometry>
        </mxCell>
        <mxCell id="4_eBpyDCCzqvXuNyVG6e-2" value="发布环境准备就绪事件：ApplicationEnvironmentPreparedEvent" style="html=1;verticalAlign=bottom;startArrow=oval;endArrow=block;startSize=8;curved=0;rounded=0;entryX=0;entryY=0;entryDx=0;entryDy=5;fontSize=20;fontColor=#000000;strokeColor=#00CC00;" parent="-QrxRBGIXTvyxB3OS5xk-1" target="4_eBpyDCCzqvXuNyVG6e-1" edge="1">
          <mxGeometry relative="1" as="geometry">
            <mxPoint x="137" y="935" as="sourcePoint" />
          </mxGeometry>
        </mxCell>
        <mxCell id="60hVxblD6QE0JyqVjlSO-1" value="" style="html=1;points=[[0,0,0,0,5],[0,1,0,0,-5],[1,0,0,0,5],[1,1,0,0,-5]];perimeter=orthogonalPerimeter;outlineConnect=0;targetShapes=umlLifeline;portConstraint=eastwest;newEdgeStyle={&quot;curved&quot;:0,&quot;rounded&quot;:0};" vertex="1" parent="-QrxRBGIXTvyxB3OS5xk-1">
          <mxGeometry x="117" y="1100" width="10" height="40" as="geometry" />
        </mxCell>
        <mxCell id="60hVxblD6QE0JyqVjlSO-2" value="self call" style="html=1;align=left;spacingLeft=2;endArrow=block;rounded=0;edgeStyle=orthogonalEdgeStyle;curved=0;rounded=0;" edge="1" target="60hVxblD6QE0JyqVjlSO-1" parent="-QrxRBGIXTvyxB3OS5xk-1">
          <mxGeometry relative="1" as="geometry">
            <mxPoint x="122" y="1080" as="sourcePoint" />
            <Array as="points">
              <mxPoint x="152" y="1110" />
            </Array>
          </mxGeometry>
        </mxCell>
        <mxCell id="-QrxRBGIXTvyxB3OS5xk-18" value="EventPublishingRunListener" style="shape=umlLifeline;perimeter=lifelinePerimeter;whiteSpace=wrap;html=1;container=1;dropTarget=0;collapsible=0;recursiveResize=0;outlineConnect=0;portConstraint=eastwest;newEdgeStyle={&quot;curved&quot;:0,&quot;rounded&quot;:0};fontSize=20;fontStyle=1" parent="1" vertex="1">
          <mxGeometry x="840" y="210" width="330" height="1090" as="geometry" />
        </mxCell>
        <mxCell id="MXJS1vc6aWy4tjezfeGe-3" value="" style="html=1;points=[[0,0,0,0,5],[0,1,0,0,-5],[1,0,0,0,5],[1,1,0,0,-5]];perimeter=orthogonalPerimeter;outlineConnect=0;targetShapes=umlLifeline;portConstraint=eastwest;newEdgeStyle={&quot;curved&quot;:0,&quot;rounded&quot;:0};" parent="-QrxRBGIXTvyxB3OS5xk-18" vertex="1">
          <mxGeometry x="160" y="700" width="10" height="80" as="geometry" />
        </mxCell>
        <mxCell id="4_eBpyDCCzqvXuNyVG6e-1" value="" style="html=1;points=[[0,0,0,0,5],[0,1,0,0,-5],[1,0,0,0,5],[1,1,0,0,-5]];perimeter=orthogonalPerimeter;outlineConnect=0;targetShapes=umlLifeline;portConstraint=eastwest;newEdgeStyle={&quot;curved&quot;:0,&quot;rounded&quot;:0};" parent="-QrxRBGIXTvyxB3OS5xk-18" vertex="1">
          <mxGeometry x="160" y="930" width="10" height="80" as="geometry" />
        </mxCell>
        <mxCell id="-QrxRBGIXTvyxB3OS5xk-56" value="run" style="html=1;verticalAlign=bottom;endArrow=block;curved=0;rounded=0;entryX=0;entryY=0;entryDx=0;entryDy=5;fontSize=20;" parent="1" edge="1">
          <mxGeometry relative="1" as="geometry">
            <mxPoint x="35" y="365" as="sourcePoint" />
            <mxPoint x="323" y="365" as="targetPoint" />
          </mxGeometry>
        </mxCell>
        <mxCell id="-QrxRBGIXTvyxB3OS5xk-58" value="SpringApplication.run方法" style="text;html=1;whiteSpace=wrap;strokeColor=none;fillColor=none;align=center;verticalAlign=middle;rounded=0;fontSize=20;fontStyle=1" parent="1" vertex="1">
          <mxGeometry x="810" y="1770" width="410" height="30" as="geometry" />
        </mxCell>
        <mxCell id="2jkTHWjFfz8fGy_T3Wvq-2" value="加载资源：META-INF/spring.factories&lt;div&gt;加载类型：org.springframework.boot.logging.LoggingSystemFactory&lt;/div&gt;&lt;div&gt;确定使用的日志系统：LogbackLoggingSystem&lt;/div&gt;" style="text;html=1;align=left;verticalAlign=middle;whiteSpace=wrap;rounded=0;fontSize=20;" parent="1" vertex="1">
          <mxGeometry x="1017" y="910" width="670" height="75" as="geometry" />
        </mxCell>
        <mxCell id="4_eBpyDCCzqvXuNyVG6e-5" value="加载资源：META-INF/spring.factories&lt;div&gt;加载类型：org.springframework.boot.env.EnvironmentPostProcessor&lt;/div&gt;&lt;div&gt;加载类型：org.springframework.boot.context.config.ConfigDataLocationResolver&lt;/div&gt;&lt;div&gt;加载类型：org.springframework.boot.env.PropertySourceLoader&lt;/div&gt;&lt;div&gt;加载类型：org.springframework.boot.context.config.ConfigDataLoader&lt;/div&gt;&lt;div&gt;&lt;font style=&quot;color: rgb(255, 0, 0);&quot;&gt;加载配置文件&lt;/font&gt;&lt;/div&gt;" style="text;html=1;align=left;verticalAlign=middle;whiteSpace=wrap;rounded=0;fontSize=20;" parent="1" vertex="1">
          <mxGeometry x="1010" y="1100" width="780" height="160" as="geometry" />
        </mxCell>
      </root>
    </mxGraphModel>
  </diagram>
</mxfile>
